<svg width="24" height="24" viewBox="0 0 24 24" fill="none" xmlns="http://www.w3.org/2000/svg">
<path d="M11.9999 18V5.00001M11.9999 18C12.0005 18.5468 12.1132 19.0876 12.331 19.5891C12.5488 20.0906 12.8671 20.5421 13.2662 20.9158C13.6653 21.2894 14.1368 21.5773 14.6516 21.7616C15.1663 21.9459 15.7134 22.0228 16.259 21.9873C16.8046 21.9519 17.3371 21.8051 17.8237 21.5558C18.3103 21.3065 18.7407 20.9601 19.0882 20.538C19.4357 20.1158 19.6929 19.627 19.8441 19.1015C19.9952 18.5761 20.037 18.0252 19.9669 17.483M11.9999 18C11.9994 18.5468 11.8867 19.0876 11.6689 19.5891C11.4511 20.0906 11.1328 20.5421 10.7337 20.9158C10.3346 21.2894 9.86308 21.5773 9.34833 21.7616C8.83359 21.9459 8.28652 22.0228 7.74092 21.9873C7.19532 21.9519 6.66278 21.8051 6.17617 21.5558C5.68956 21.3065 5.25922 20.9601 4.91173 20.538C4.56424 20.1158 4.30698 19.627 4.15583 19.1015C4.00469 18.5761 3.96286 18.0252 4.03295 17.483M11.9999 5.00001C11.9999 4.53984 12.1058 4.08582 12.3093 3.6731C12.5128 3.26037 12.8085 2.9 13.1736 2.61986C13.5387 2.33971 13.9633 2.14731 14.4147 2.05753C14.866 1.96775 15.3319 1.983 15.7764 2.1021C16.2209 2.22121 16.632 2.44097 16.978 2.74439C17.324 3.04781 17.5955 3.42675 17.7716 3.8519C17.9477 4.27705 18.0236 4.73702 17.9935 5.1962C17.9634 5.65539 17.8281 6.1015 17.5979 6.50001M11.9999 5.00001C12 4.53984 11.8941 4.08582 11.6906 3.6731C11.4871 3.26037 11.1914 2.9 10.8263 2.61986C10.4612 2.33971 10.0366 2.14731 9.58524 2.05753C9.13391 1.96775 8.66797 1.983 8.22348 2.1021C7.77899 2.22121 7.36785 2.44097 7.02188 2.74439C6.6759 3.04781 6.40437 3.42675 6.22828 3.8519C6.05219 4.27705 5.97626 4.73702 6.00638 5.1962C6.03649 5.65539 6.17184 6.1015 6.40195 6.50001M14.9999 13C14.1347 12.7471 13.3748 12.2206 12.8339 11.4995C12.2931 10.7784 12.0005 9.90142 11.9999 9.00001C11.9994 9.90142 11.7068 10.7784 11.1659 11.4995C10.6251 12.2206 9.86515 12.7471 8.99995 13M17.9969 5.12501C18.5847 5.27615 19.1304 5.55906 19.5927 5.95232C20.055 6.34558 20.4217 6.83888 20.6651 7.39486C20.9085 7.95083 21.0222 8.5549 20.9976 9.16132C20.9729 9.76774 20.8106 10.3606 20.5229 10.895M17.9999 18C18.8805 18 19.7363 17.7094 20.4349 17.1734C21.1334 16.6373 21.6356 15.8858 21.8635 15.0353C22.0914 14.1848 22.0323 13.2829 21.6953 12.4694C21.3584 11.6559 20.7625 10.9763 19.9999 10.536M5.99995 18C5.11944 18 4.26355 17.7094 3.56501 17.1734C2.86647 16.6373 2.36432 15.8858 2.13642 15.0353C1.90853 14.1848 1.96763 13.2829 2.30456 12.4694C2.6415 11.6559 3.23743 10.9763 3.99995 10.536M6.00295 5.12501C5.41515 5.27615 4.86945 5.55906 4.40718 5.95232C3.94491 6.34558 3.57819 6.83888 3.33479 7.39486C3.0914 7.95083 2.97771 8.5549 3.00234 9.16132C3.02697 9.76774 3.18927 10.3606 3.47695 10.895" stroke="#9810FA" stroke-width="2" stroke-linecap="round" stroke-linejoin="round"/>
</svg>
