<svg width="32" height="32" viewBox="0 0 32 32" fill="none" xmlns="http://www.w3.org/2000/svg">
<path d="M16 24V6.66668M16 24C16.0007 24.729 16.151 25.4501 16.4414 26.1188C16.7317 26.7874 17.1561 27.3895 17.6883 27.8877C18.2205 28.3859 18.8491 28.7698 19.5355 29.0155C20.2218 29.2612 20.9512 29.3637 21.6787 29.3165C22.4061 29.2693 23.1162 29.0734 23.765 28.741C24.4138 28.4086 24.9876 27.9468 25.4509 27.384C25.9142 26.8211 26.2573 26.1693 26.4588 25.4687C26.6603 24.7681 26.7161 24.0337 26.6226 23.3107M16 24C15.9992 24.729 15.849 25.4501 15.5586 26.1188C15.2682 26.7874 14.8438 27.3895 14.3116 27.8877C13.7795 28.3859 13.1508 28.7698 12.4645 29.0155C11.7782 29.2612 11.0487 29.3637 10.3213 29.3165C9.59381 29.2693 8.88374 29.0734 8.23493 28.741C7.58612 28.4086 7.01233 27.9468 6.54902 27.384C6.0857 26.8211 5.74268 26.1693 5.54115 25.4687C5.33962 24.7681 5.28386 24.0337 5.3773 23.3107M16 6.66668C15.9999 6.05311 16.1411 5.44776 16.4124 4.89746C16.6838 4.34716 17.0781 3.86667 17.5649 3.49314C18.0516 3.11961 18.6178 2.86308 19.2196 2.74337C19.8214 2.62366 20.4426 2.644 21.0353 2.8028C21.6279 2.96161 22.1761 3.25463 22.6374 3.65919C23.0987 4.06374 23.4607 4.569 23.6955 5.13587C23.9303 5.70274 24.0315 6.31602 23.9914 6.92827C23.9512 7.54052 23.7708 8.13533 23.464 8.66668M16 6.66668C16 6.05311 15.8589 5.44776 15.5875 4.89746C15.3162 4.34716 14.9218 3.86667 14.4351 3.49314C13.9483 3.11961 13.3821 2.86308 12.7804 2.74337C12.1786 2.62366 11.5573 2.644 10.9647 2.8028C10.372 2.96161 9.82384 3.25463 9.36254 3.65919C8.90124 4.06374 8.5392 4.569 8.30441 5.13587C8.06962 5.70274 7.96839 6.31602 8.00855 6.92827C8.0487 7.54052 8.22916 8.13533 8.53597 8.66668M20 17.3333C18.8464 16.9961 17.8331 16.2942 17.112 15.3327C16.3908 14.3712 16.0007 13.2019 16 12C15.9992 13.2019 15.6091 14.3712 14.888 15.3327C14.1668 16.2942 13.1536 16.9961 12 17.3333M23.996 6.83335C24.7797 7.03486 25.5073 7.41208 26.1237 7.93643C26.74 8.46078 27.229 9.11851 27.5535 9.85981C27.878 10.6011 28.0296 11.4065 27.9968 12.2151C27.9639 13.0237 27.7475 13.8141 27.364 14.5267M24 24C25.174 24 26.3152 23.6125 27.2465 22.8978C28.1779 22.1831 28.8475 21.1811 29.1513 20.0471C29.4552 18.9131 29.3764 17.7105 28.9271 16.6258C28.4779 15.5412 27.6833 14.6351 26.6666 14.048M7.99997 24C6.82596 24 5.68478 23.6125 4.75339 22.8978C3.822 22.1831 3.15246 21.1811 2.84861 20.0471C2.54475 18.9131 2.62355 17.7105 3.07279 16.6258C3.52204 15.5412 4.31661 14.6351 5.3333 14.048M8.00397 6.83335C7.22024 7.03486 6.49264 7.41208 5.87628 7.93643C5.25992 8.46078 4.77096 9.11851 4.44643 9.85981C4.1219 10.6011 3.97032 11.4065 4.00316 12.2151C4.036 13.0237 4.2524 13.8141 4.63597 14.5267" stroke="#188734" stroke-width="2" stroke-linecap="round" stroke-linejoin="round"/>
</svg>
