<svg width="32" height="32" viewBox="0 0 32 32" fill="none" xmlns="http://www.w3.org/2000/svg">
<path d="M17.0667 26.1334C17.4047 26.3869 17.7981 26.5565 18.2146 26.6281C18.631 26.6997 19.0585 26.6714 19.4618 26.5454C19.8651 26.4194 20.2327 26.1994 20.5343 25.9035C20.8359 25.6075 21.0629 25.2442 21.1965 24.8433C21.3301 24.4425 21.3666 24.0156 21.3028 23.5979C21.2391 23.1802 21.077 22.7836 20.83 22.4408C20.5829 22.098 20.2579 21.8189 19.8818 21.6263C19.5057 21.4338 19.0892 21.3334 18.6667 21.3334H2.66666M23.3333 10.6667C23.6742 10.2122 24.1257 9.85229 24.6448 9.62129C25.1639 9.39029 25.7335 9.29582 26.2993 9.34684C26.8652 9.39787 27.4087 9.5927 27.8781 9.91284C28.3475 10.233 28.7273 10.6678 28.9814 11.176C29.2355 11.6842 29.3555 12.2489 29.33 12.8165C29.3044 13.3842 29.1342 13.9358 28.8355 14.4191C28.5368 14.9025 28.1195 15.3014 27.6232 15.5781C27.1269 15.8548 26.5682 16 26 16H2.66666M13.0667 5.86671C13.4047 5.61318 13.7981 5.44362 14.2146 5.37198C14.631 5.30034 15.0585 5.32868 15.4618 5.45467C15.8651 5.58066 16.2327 5.80068 16.5343 6.09662C16.8359 6.39255 17.0629 6.75591 17.1965 7.15677C17.3301 7.55762 17.3666 7.98449 17.3028 8.4022C17.2391 8.8199 17.077 9.21649 16.83 9.55927C16.5829 9.90205 16.2579 10.1812 15.8818 10.3738C15.5057 10.5663 15.0892 10.6667 14.6667 10.6667H2.66666" stroke="#188734" stroke-width="2" stroke-linecap="round" stroke-linejoin="round"/>
</svg>
